<mxfile host="app.diagrams.net" agent="Mozilla/5.0 (Windows NT 10.0; Win64; x64) AppleWebKit/537.36 (KHTML, like Gecko) Chrome/138.0.0.0 Safari/537.36" version="27.2.0">
  <diagram name="Page-1" id="V6AmxuJwzJKM5c6ZlT9t">
    <mxGraphModel dx="1426" dy="777" grid="1" gridSize="10" guides="1" tooltips="1" connect="1" arrows="1" fold="1" page="1" pageScale="1" pageWidth="850" pageHeight="1100" math="0" shadow="0">
      <root>
        <mxCell id="0" />
        <mxCell id="1" parent="0" />
        <mxCell id="9WVWMzASMLNCSFhdIcP3-16" value="BROWSER" style="rounded=0;whiteSpace=wrap;html=1;" vertex="1" parent="1">
          <mxGeometry x="320" y="260" width="120" height="60" as="geometry" />
        </mxCell>
        <mxCell id="9WVWMzASMLNCSFhdIcP3-17" value="SERVER" style="rounded=0;whiteSpace=wrap;html=1;" vertex="1" parent="1">
          <mxGeometry x="820" y="260" width="120" height="60" as="geometry" />
        </mxCell>
        <mxCell id="9WVWMzASMLNCSFhdIcP3-18" value="POST&amp;nbsp;&lt;div&gt;&lt;span style=&quot;color: rgb(227, 227, 227); font-family: system-ui, sans-serif; font-size: 12px; text-align: start; text-wrap-mode: wrap; background-color: rgb(40, 40, 40);&quot;&gt;https://studies.cs.helsinki.fi/exampleapp/new_note_spa&lt;/span&gt;&lt;/div&gt;" style="endArrow=classic;html=1;rounded=0;" edge="1" parent="1">
          <mxGeometry x="-0.0196" y="20" width="50" height="50" relative="1" as="geometry">
            <mxPoint x="370" y="370" as="sourcePoint" />
            <mxPoint x="880" y="370" as="targetPoint" />
            <mxPoint as="offset" />
          </mxGeometry>
        </mxCell>
        <mxCell id="9WVWMzASMLNCSFhdIcP3-20" value="&lt;font style=&quot;font-size: 11px;&quot;&gt;Palvelin kertoo luoneensa kyseisen noten statuskoodilla 201. Palvelin huolehtii noten tallentamisesta palvelimen pysyvään muistiin.&lt;br&gt;&lt;br&gt;&amp;nbsp;Uudelleenohjausta ei pyydetä, vaan sen sijaan notes-kokoelmaan lisätään paikallisesti kyseinen note, minkä jälkeen notes piirretään uudestaan.&lt;/font&gt;" style="text;html=1;align=center;verticalAlign=middle;whiteSpace=wrap;rounded=0;" vertex="1" parent="1">
          <mxGeometry x="480" y="380" width="270" height="90" as="geometry" />
        </mxCell>
        <mxCell id="9WVWMzASMLNCSFhdIcP3-24" value="" style="endArrow=classic;html=1;rounded=0;" edge="1" parent="1">
          <mxGeometry width="50" height="50" relative="1" as="geometry">
            <mxPoint x="870" y="480" as="sourcePoint" />
            <mxPoint x="360" y="480" as="targetPoint" />
          </mxGeometry>
        </mxCell>
      </root>
    </mxGraphModel>
  </diagram>
</mxfile>
